<?xml version="1.0" encoding="utf-8"?>
<!-- Generator: Adobe Illustrator 16.0.4, SVG Export Plug-In . SVG Version: 6.00 Build 0)  -->
<!DOCTYPE svg PUBLIC "-//W3C//DTD SVG 1.1//EN" "http://www.w3.org/Graphics/SVG/1.1/DTD/svg11.dtd">
<svg version="1.1" xmlns="http://www.w3.org/2000/svg" xmlns:xlink="http://www.w3.org/1999/xlink" x="0px" y="0px" width="150px"
	 height="150px" viewBox="0 0 150 150" enable-background="new 0 0 150 150" xml:space="preserve">
<g id="Layer_1">
	<g>
		<polygon fill="none" stroke="#C7C8CA" stroke-width="3" stroke-linejoin="round" stroke-miterlimit="10" points="96.734,38.968 
			96.734,6.283 96.734,6.281 23.004,6.281 23.004,144 129.423,144 129.423,38.968 		"/>
		<path stroke="#C7C8CA" stroke-width="3" stroke-linejoin="round" stroke-miterlimit="10" d="M96.734,6.283l32.688,32.686
			L96.734,6.283z"/>
	</g>
</g>
<g id="Layer_2" display="none">
	
		<text transform="matrix(1 0 0 1 29.042 136.0469)" display="inline" opacity="0.54" font-family="'FreightSansProBook-Regular'" font-size="18.5265">chemistry</text>
</g>
<g id="Layer_2_copy" display="none">
	
		<text transform="matrix(1 0 0 1 29.042 136.0469)" display="inline" opacity="0.54" font-family="'FreightSansProBook-Regular'" font-size="18.5265">engineering</text>
</g>
<g id="Layer_2_copy_2" display="none">
	<text transform="matrix(1 0 0 1 28.0425 122.5449)" display="inline" opacity="0.54"><tspan x="0" y="0" font-family="'FreightSansProBook-Regular'" font-size="15.4462">environmental</tspan><tspan x="0" y="14" font-family="'FreightSansProBook-Regular'" font-size="15.4462">design</tspan></text>
</g>
<g id="Layer_2_copy_3">
	<text transform="matrix(1 0 0 1 28.043 119.5986)" opacity="0.54"><tspan x="0" y="0" font-family="'FreightSansProBook-Regular'" font-size="17.973">haas school</tspan><tspan x="0" y="16.29" font-family="'FreightSansProBook-Regular'" font-size="17.973">of business</tspan></text>
</g>
<g id="Layer_2_copy_4" display="none">
	<text transform="matrix(1 0 0 1 28.042 118.5352)" display="inline" opacity="0.54"><tspan x="0" y="0" font-family="'FreightSansProBook-Regular'" font-size="19.7417">letters &amp;</tspan><tspan x="0" y="17.894" font-family="'FreightSansProBook-Regular'" font-size="19.7417">science</tspan></text>
</g>
<g id="Layer_2_copy_5" display="none">
	<text transform="matrix(1 0 0 1 28.042 118.5352)" display="inline" opacity="0.54"><tspan x="0" y="0" font-family="'FreightSansProBook-Regular'" font-size="19.7417">natural</tspan><tspan x="0" y="17.894" font-family="'FreightSansProBook-Regular'" font-size="19.7417">resources</tspan></text>
</g>
<g id="Layer_2_copy_6" display="none">
	<text transform="matrix(1 0 0 1 28.042 118.5352)" display="inline" opacity="0.54"><tspan x="0" y="0" font-family="'FreightSansProBook-Regular'" font-size="19.7417">school </tspan><tspan x="0" y="17.894" font-family="'FreightSansProBook-Regular'" font-size="19.7417">of law</tspan></text>
</g>
</svg>
