<?xml version="1.0" encoding="utf-8"?>
<!-- Generator: Adobe Illustrator 16.0.4, SVG Export Plug-In . SVG Version: 6.00 Build 0)  -->
<!DOCTYPE svg PUBLIC "-//W3C//DTD SVG 1.1//EN" "http://www.w3.org/Graphics/SVG/1.1/DTD/svg11.dtd">
<svg version="1.1" xmlns="http://www.w3.org/2000/svg" xmlns:xlink="http://www.w3.org/1999/xlink" x="0px" y="0px" width="1500px"
	 height="100px" viewBox="0 0 1500 100" enable-background="new 0 0 1500 100" xml:space="preserve">
<g id="Layer_1" display="none">
	<g display="inline">
		<polygon fill="#FFFFFF" stroke="#C9C9C9" stroke-miterlimit="10" points="1120.632,80.506 750.593,80.506 750.593,19.297 
			1120.632,19.297 1145.285,49.901 		"/>
		<polygon fill="#FFFFFF" stroke="#C9C9C9" stroke-miterlimit="10" points="749.324,80.496 379.282,80.496 379.282,19.286 
			749.324,19.286 773.977,49.892 		"/>
		<path fill="#FFFFFF" stroke="#C9C9C9" stroke-miterlimit="10" d="M382.14,80.001H22.23c-4.056,0-7.346-3.29-7.346-7.347V26.137
			c0-4.057,3.29-7.346,7.346-7.346H382.14l23.979,30.604L382.14,80.001z"/>
		<path fill="none" stroke="#C9C9C9" stroke-width="2" stroke-miterlimit="10" d="M1485.115,73.862c0,4.055-3.289,7.347-7.343,7.347
			H23.442c-4.055,0-7.346-3.292-7.346-7.347V27.344c0-4.057,3.291-7.345,7.346-7.345h1454.33c4.054,0,7.343,3.288,7.343,7.345
			V73.862z"/>
		<text transform="matrix(1 0 0 1 82.5869 57.7373)" fill="#3D7FA2" font-family="'Arial-BoldMT'" font-size="26.932">Student Information</text>
		<text transform="matrix(1 0 0 1 497.5889 58.5693)" fill="#9B9A9A" font-family="'ArialMT'" font-size="26.932">Confirm Units</text>
		<text transform="matrix(1 0 0 1 871.6084 58.5703)" fill="#9B9A9A" font-family="'ArialMT'" font-size="26.932">Form Actions</text>
		<text transform="matrix(1 0 0 1 1232.9248 58.5703)" fill="#9B9A9A" font-family="'ArialMT'" font-size="26.932">Confirm Form</text>
	</g>
</g>
<g id="Layer_2" display="none">
	<g display="inline">
		<polygon fill="#FFFFFF" stroke="#C9C9C9" stroke-miterlimit="10" points="1120.201,81.909 749.766,81.909 749.766,20.636 
			1120.201,20.636 1144.881,51.272 		"/>
		<polygon fill="#FFFFFF" stroke="#C9C9C9" stroke-miterlimit="10" points="749.893,81.899 379.457,81.899 379.457,20.625 
			749.893,20.625 774.572,51.262 		"/>
		<path fill="#E9E8E7" stroke="#C9C9C9" stroke-miterlimit="10" d="M384.555,81.705H24.261c-4.06,0-7.353-3.291-7.353-7.353V27.784
			c0-4.061,3.293-7.353,7.353-7.353h360.294l24.005,30.637L384.555,81.705z"/>
		<path fill="none" stroke="#C9C9C9" stroke-width="2" stroke-miterlimit="10" d="M1486.686,74.353c0,4.062-3.294,7.353-7.353,7.353
			H23.45c-4.06,0-7.353-3.291-7.353-7.353V27.784c0-4.061,3.293-7.353,7.353-7.353h1455.883c4.059,0,7.353,3.292,7.353,7.353V74.353
			z"/>
		<text transform="matrix(1 0 0 1 95.3398 59.0439)" fill="#B8B8B8" font-family="'ArialMT'" font-size="24.5098">Student Information</text>
		<g>
			<text transform="matrix(1 0 0 1 503.8379 59.0439)" fill="#3D7FA2" font-family="'Arial-BoldMT'" font-size="24.5098">Confirm Units</text>
		</g>
		<text transform="matrix(1 0 0 1 877.2051 59.0439)" fill="#9B9A9A" font-family="'ArialMT'" font-size="24.5098">Form Actions</text>
		<text transform="matrix(1 0 0 1 1234.2266 59.042)" fill="#9B9A9A" font-family="'ArialMT'" font-size="24.5098">Confirm Form</text>
	</g>
</g>
<g id="Layer_3">
	<polygon fill="#E9E8E7" stroke="#C9C9C9" stroke-miterlimit="10" points="1118.006,81.991 748.307,81.991 748.307,20.84 
		1118.006,20.84 1142.637,51.415 	"/>
	<polygon fill="#E9E8E7" stroke="#C9C9C9" stroke-miterlimit="10" points="748.434,81.981 378.734,81.981 378.734,20.829 
		748.434,20.829 773.064,51.405 	"/>
	<path fill="#E9E8E7" stroke="#C9C9C9" stroke-miterlimit="10" d="M383.823,81.788H24.245c-4.051,0-7.338-3.284-7.338-7.338V27.974
		c0-4.054,3.287-7.338,7.338-7.338h359.578l23.957,30.576L383.823,81.788z"/>
	<path fill="none" stroke="#C9C9C9" stroke-width="2" stroke-miterlimit="10" d="M1487.61,74.431c0,4.064-3.296,7.357-7.357,7.357
		H23.454c-4.062,0-7.357-3.293-7.357-7.357V27.833c0-4.064,3.296-7.357,7.357-7.357h1456.799c4.062,0,7.357,3.293,7.357,7.357
		V74.431z"/>
</g>
</svg>
